<svg width="35" height="26" viewBox="0 0 35 26" fill="none" xmlns="http://www.w3.org/2000/svg">
<path d="M13.0416 25.5001C12.7559 25.4991 12.4735 25.4395 12.2119 25.3248C11.9503 25.2101 11.715 25.0428 11.5208 24.8334L1.39577 14.0626C1.01728 13.6592 0.814528 13.122 0.83211 12.5692C0.849691 12.0163 1.08617 11.4931 1.48952 11.1146C1.89287 10.7362 2.43005 10.5334 2.98289 10.551C3.53573 10.5686 4.05895 10.805 4.43743 11.2084L13.0208 20.3542L30.5416 1.18756C30.7194 0.966146 30.9406 0.783421 31.1916 0.650606C31.4426 0.517791 31.7181 0.43769 32.0012 0.415223C32.2842 0.392755 32.5689 0.428396 32.8377 0.519956C33.1065 0.611516 33.3538 0.757061 33.5643 0.947653C33.7748 1.13825 33.9441 1.36986 34.0618 1.62827C34.1796 1.88668 34.2432 2.16644 34.2489 2.45035C34.2546 2.73426 34.2022 3.01633 34.0949 3.27925C33.9876 3.54216 33.8276 3.78036 33.6249 3.97922L14.5833 24.8126C14.3909 25.0258 14.1564 25.1969 13.8947 25.3153C13.633 25.4336 13.3496 25.4965 13.0624 25.5001H13.0416Z" fill="#64DF04"/>
</svg>
